<?xml version="1.0" standalone="no"?>
<!DOCTYPE svg PUBLIC "-//W3C//DTD SVG 20010904//EN"
 "http://www.w3.org/TR/2001/REC-SVG-20010904/DTD/svg10.dtd">
<svg version="1.0" xmlns="http://www.w3.org/2000/svg"
 width="576.000000pt" height="576.000000pt" viewBox="0 0 576.000000 576.000000"
 preserveAspectRatio="xMidYMid meet">
<metadata>
Created by potrace 1.11, written by Peter Selinger 2001-2013
</metadata>
<g transform="translate(0.000000,576.000000) scale(0.100000,-0.100000)"
fill="#000000" stroke="none">
<path d="M762 4620 c-168 -19 -140 2 -293 -225 -101 -149 -230 -394 -288 -544
-27 -70 -89 -268 -104 -332 l-6 -25 62 7 c34 4 143 17 242 28 333 39 860 102
883 107 12 2 28 16 34 29 10 23 3 33 -97 142 -60 65 -117 127 -126 138 -13 15
-25 92 -53 335 -21 173 -41 325 -46 338 -11 26 -10 26 -208 2z"/>
<path d="M4948 4592 c-59 -26 -112 -52 -118 -58 -7 -7 -6 -21 5 -47 9 -21 13
-48 9 -62 -7 -27 10 -35 20 -10 8 23 29 18 56 -14 14 -15 31 -26 38 -23 9 3
11 -2 7 -21 -8 -29 20 -91 36 -81 7 4 9 -1 5 -14 -8 -25 23 -92 43 -92 11 0
12 -3 4 -11 -13 -13 14 -89 32 -89 7 0 12 -12 12 -27 0 -16 4 -38 8 -50 12
-38 -12 -27 -26 11 -8 23 -17 32 -27 29 -11 -5 -13 -1 -8 15 9 28 -19 92 -40
92 -13 0 -14 3 -5 14 14 17 -15 86 -36 86 -7 0 -13 5 -13 10 0 6 4 10 9 10 5
0 2 18 -6 40 -20 49 -39 51 -47 5 -6 -29 4 -61 55 -182 79 -190 96 -223 115
-223 9 0 55 16 102 36 48 20 107 44 132 54 25 10 46 25 48 34 5 24 -209 525
-227 531 -9 3 -24 23 -33 45 -9 22 -22 40 -30 39 -7 0 -61 -21 -120 -47z"/>
<path d="M2764 4455 c-139 -30 -256 -122 -318 -250 -92 -189 -107 -443 -52
-870 14 -110 27 -216 30 -237 4 -35 3 -36 -39 -48 -41 -11 -55 -9 -237 44
-106 31 -214 62 -239 70 l-47 14 -15 -41 c-29 -81 -47 -142 -49 -176 l-3 -33
110 -32 c61 -18 117 -35 125 -37 9 -4 -12 -21 -58 -48 -40 -24 -72 -45 -72
-47 0 -26 117 -214 133 -214 5 0 32 14 59 31 28 16 52 28 55 26 2 -3 -10 -51
-27 -107 -17 -56 -30 -104 -28 -106 6 -5 179 -61 215 -68 30 -7 32 -6 39 28 3
20 9 36 13 36 10 0 77 -185 90 -250 15 -75 16 -183 2 -255 -7 -33 -47 -183
-88 -334 -66 -236 -75 -277 -66 -302 8 -22 8 -48 0 -97 -6 -38 -11 -184 -11
-337 0 -246 11 -420 40 -621 l6 -42 71 -11 c95 -14 231 -29 338 -35 l87 -5 11
112 c7 62 24 204 39 317 14 113 29 275 32 360 l6 155 2 -148 c1 -82 6 -156 11
-165 5 -9 24 -153 42 -319 l34 -303 62 0 c86 0 348 35 424 56 13 3 19 28 28
107 24 219 32 350 32 539 l1 197 438 3 c425 3 439 4 466 24 68 50 69 54 72
294 3 238 1 252 -55 304 -28 27 -98 46 -163 46 l-39 0 -3 213 c-3 206 -4 214
-30 270 -38 80 -117 160 -197 200 -62 30 -72 32 -173 32 l-107 0 -3 88 c-2 48
-1 87 2 87 3 0 14 -7 24 -15 18 -14 22 -11 54 33 35 49 92 155 92 171 0 9
-119 87 -123 80 -19 -36 -28 -45 -48 -47 -18 -3 -30 -17 -47 -52 -48 -101
-188 -165 -307 -140 -51 11 -57 14 -42 25 30 22 67 85 67 114 0 15 -8 35 -18
44 -24 22 -76 22 -93 1 -16 -19 -39 -82 -39 -106 0 -11 -5 -15 -15 -12 -20 8
-19 1 11 -57 22 -43 33 -54 82 -76 152 -69 283 -133 345 -171 67 -41 71 -42
123 -33 160 25 317 -73 364 -226 17 -55 20 -93 20 -244 l0 -179 -335 0 -335 0
0 180 0 180 28 6 c45 11 45 15 0 47 -24 16 -119 87 -213 157 -136 102 -180
130 -222 139 -28 7 -79 29 -113 49 -77 46 -200 148 -200 167 0 26 21 27 53 3
48 -36 66 -43 32 -13 -80 72 -125 117 -125 124 0 5 7 14 15 21 16 13 28 6 124
-74 24 -20 46 -35 48 -32 5 4 -62 68 -111 107 -20 16 -27 28 -23 45 3 18 -2
25 -27 36 -68 27 -154 130 -180 216 -7 21 -5 22 63 22 l70 0 5 33 c3 17 7 62
10 98 l5 66 -49 37 c-85 65 -167 176 -201 271 -13 36 -22 49 -34 47 -20 -4
-52 23 -71 60 -21 40 -18 121 5 149 27 33 51 17 76 -54 11 -30 24 -59 28 -63
4 -4 7 24 7 63 l0 70 65 6 c122 12 368 109 469 185 l40 30 33 -57 c43 -71 99
-129 141 -147 31 -14 32 -15 33 -82 l0 -67 23 57 c12 32 27 63 32 68 24 24 64
-22 64 -74 0 -67 -57 -151 -97 -143 -14 3 -23 -1 -23 -8 0 -7 -18 -49 -40 -93
-41 -82 -144 -205 -194 -231 -23 -13 -26 -20 -26 -71 0 -32 3 -78 6 -104 l7
-46 68 0 c49 0 69 -4 69 -12 0 -32 -54 -123 -98 -166 -41 -40 -46 -48 -29 -49
11 -1 25 -7 31 -14 8 -8 5 -10 -12 -4 -15 4 -32 1 -49 -10 -23 -16 -25 -16
-20 -1 4 10 1 16 -8 16 -31 0 -21 -18 36 -64 73 -58 95 -57 74 4 -15 42 -11
70 9 70 8 0 11 12 8 36 -3 27 1 41 17 58 12 11 35 40 52 64 33 48 106 99 154
108 l31 5 33 269 c30 241 33 287 28 437 -4 125 -11 189 -26 248 -62 234 -179
358 -376 400 -85 18 -219 18 -301 0z m556 -1770 c7 -8 24 -15 37 -15 34 0 24
-24 -11 -28 -32 -4 -56 13 -56 39 0 23 13 24 30 4z m160 -825 l0 -180 -23 0
c-21 0 -26 10 -55 133 l-32 132 53 47 c28 26 53 47 55 48 1 0 2 -81 2 -180z"/>
<path d="M3065 3913 c-31 -8 -48 -24 -36 -36 7 -7 14 -7 23 0 26 21 77 25 109
9 21 -10 29 -11 26 -3 -9 28 -69 43 -122 30z"/>
<path d="M2700 3811 c-17 -33 -12 -96 10 -116 19 -17 21 -17 40 0 37 33 22
135 -20 135 -11 0 -24 -9 -30 -19z"/>
<path d="M3079 3814 c-8 -9 -14 -36 -14 -60 0 -83 59 -99 79 -22 16 63 -31
123 -65 82z"/>
<path d="M2815 3479 c12 -39 45 -89 71 -106 46 -30 109 20 130 101 6 26 5 28
-12 21 -61 -25 -116 -25 -178 0 -16 7 -17 5 -11 -16z"/>
<path d="M3668 3227 c-97 -61 -174 -115 -171 -119 2 -5 14 -8 26 -8 41 -1 112
-41 159 -91 l46 -50 129 82 c70 45 130 83 132 85 12 11 -115 214 -134 214 -5
0 -89 -51 -187 -113z"/>
<path d="M3366 3059 c-48 -38 -28 -79 39 -79 36 1 75 18 75 34 0 3 -20 6 -44
6 -50 0 -62 10 -46 40 14 25 9 25 -24 -1z"/>
<path d="M3251 2918 c-10 -28 1 -63 20 -63 10 0 14 12 14 39 0 45 -21 60 -34
24z"/>
<path d="M3522 2928 c-17 -17 -15 -53 4 -69 13 -10 17 -10 25 2 22 35 -3 93
-29 67z"/>
<path d="M2925 2764 c56 -50 95 -77 95 -66 0 13 -109 102 -124 102 -6 -1 7
-17 29 -36z"/>
<path d="M5110 2373 c-118 -288 -171 -426 -163 -432 11 -10 268 -111 281 -111
13 0 46 85 38 98 -3 6 1 18 11 27 14 14 14 18 2 26 -8 5 -18 9 -22 9 -5 0 -7
10 -5 23 2 18 8 22 36 19 38 -3 42 15 6 28 -19 7 -25 16 -22 33 3 23 25 27 61
12 12 -5 17 -3 17 9 0 9 -6 16 -14 16 -21 0 -29 17 -17 37 5 10 21 18 36 18
24 0 30 8 57 74 16 41 25 77 21 82 -11 11 -261 109 -277 109 -7 0 -28 -34 -46
-77z"/>
<path d="M819 2397 c-114 -87 -202 -304 -258 -637 -12 -69 -24 -163 -28 -210
l-8 -85 -64 3 c-50 3 -62 1 -56 -10 20 -37 111 -168 116 -168 18 0 41 96 50
204 19 238 68 477 134 653 47 123 107 208 170 237 19 9 35 23 35 31 0 26 -46
17 -91 -18z"/>
<path d="M1845 1730 c-9 -16 -63 -229 -121 -472 -57 -244 -125 -528 -149 -631
-25 -104 -45 -192 -45 -196 0 -4 15 -15 34 -24 l35 -16 21 92 c12 51 48 200
80 332 160 661 212 894 206 919 -9 36 -41 34 -61 -4z"/>
</g>
</svg>
